# xmcd CD database file
#
# Track frame offsets:
#	151
#	10080
#	27640
#	40489
#	61035
#	78113
#	98248
#	113377
#	130210
#	154402
#	177772
#	195718
#
# Disc length: 2927 seconds
#
# Revision: 0
# Processed by: cddbd v1.5.2PL0 Copyright (c) Steve Scherf et al.
# Submitted via: CDex 1.51
#
DISCID=900b6d0c
DTITLE=JULIE ANNE - HEY, DADDY
DYEAR=2007
DGENRE=Jazz
TTITLE0=01 DADDY
TTITLE1=02 I GOT IT BAD AND THAT AIN'T GOOD
TTITLE2=03 HALLELUJA, I LOVE HIM SO
TTITLE3=04 BEWITCHED
TTITLE4=05 I DON'T KNOW ENOUGH ABOUT YOU
TTITLE5=06 THE VERY THOUGHT OF YOU
TTITLE6=07 GEE, BABY AIN'T I GOOD TO YOU
TTITLE7=08 GUESS WHO I SAW TODAY
TTITLE8=09 PEEL ME A GRAPE
TTITLE9=10 HOW LONG HAS THIS BEEN GOING ON
TTITLE10=11 CRY ME A RIVER
TTITLE11=13 BLACK COFFEE
EXTD=YEAR: 2007
EXTT0=
EXTT1=
EXTT2=
EXTT3=
EXTT4=
EXTT5=
EXTT6=
EXTT7=
EXTT8=
EXTT9=
EXTT10=
EXTT11=
PLAYORDER=
